<svg width="80" height="80" viewBox="0 0 80 80" fill="none" xmlns="http://www.w3.org/2000/svg">
<circle cx="40" cy="40" r="40" fill="#F09637"/>
<path d="M59.7463 28.4791C59.0791 28.6267 58.4712 28.9702 58.0005 29.4654C57.5297 29.9607 57.2175 30.5852 57.1038 31.2589C57.018 31.6364 56.8979 32.0654 56.7777 32.4258C55.3674 31.7954 53.8228 31.5242 52.282 31.6364L52.0589 31.0015C52.2378 29.5191 52.9967 28.1679 54.1695 27.2436C54.3372 27.1705 54.5091 27.1074 54.6843 27.0549C56.2806 26.7125 57.763 25.9683 58.9913 24.8928C59.2707 24.5281 59.474 24.111 59.5892 23.6663C59.7044 23.2215 59.7291 22.7582 59.6619 22.3037C59.5947 21.8493 59.4369 21.4129 59.1979 21.0205C58.9589 20.6282 58.6436 20.2878 58.2706 20.0196C56.3659 18.5953 53.4831 19.8137 52.2477 20.3284C49.039 21.9805 46.5479 24.7525 45.2467 28.1188C44.9096 28.9413 44.7535 29.8268 44.7891 30.7151C44.8246 31.6033 45.0509 32.4735 45.4526 33.2666C45.7716 33.8716 45.9532 34.5395 45.9845 35.2227C45.9667 35.4168 45.9667 35.6121 45.9845 35.8061C45.4065 36.6988 44.7012 37.5023 43.8911 38.1913C43.4106 38.6546 42.9988 39.0493 42.7586 39.341C41.6615 40.7523 40.7181 42.2767 39.9444 43.8882C38.9492 42.5154 37.8682 41.2457 37.4735 40.8167C36.0281 38.9266 35.105 36.6898 34.7966 34.3304C34.4878 32.1684 35.8777 30.1093 37.1131 28.2732C38.6746 25.9395 40.4249 23.297 39.3953 19.6935C38.9894 18.3794 38.3242 17.16 37.4392 16.1072C37.0812 15.634 36.6021 15.2661 36.0524 15.0426C35.5027 14.8191 34.9028 14.7482 34.3162 14.8374C33.6631 14.9344 33.0469 15.2009 32.529 15.6104C32.0111 16.0199 31.6097 16.558 31.3648 17.1711C31.1512 17.7138 31.0863 18.3036 31.1768 18.8798C31.2673 19.4559 31.5099 19.9975 31.8795 20.4485C32.2215 20.8977 32.4827 21.4028 32.6517 21.9414C32.3059 22.7543 31.7775 23.4765 31.1074 24.052C30.6411 24.5321 30.2001 25.0362 29.7861 25.562C28.0702 24.481 25.0158 23.2798 22.9224 24.0863C22.3525 24.3587 21.8739 24.7907 21.5449 25.3298C21.216 25.869 21.0507 26.4922 21.0692 27.1235C20.8976 30.0235 23.3342 30.5554 24.6383 30.8643C25.0137 30.9307 25.3816 31.0341 25.7365 31.1731C26.2388 31.4487 26.6725 31.8341 27.0052 32.3005C27.338 32.767 27.5612 33.3025 27.6584 33.8671C27.6396 34.0268 27.6396 34.188 27.6584 34.3476C27.7333 34.8079 27.7333 35.2772 27.6584 35.7375C27.5524 36.3565 27.5524 36.9889 27.6584 37.6079C26.7613 37.5214 25.8721 37.3665 24.9987 37.1446C22.6779 36.3283 20.1309 36.4452 17.8947 37.4706C17.2869 37.8046 16.7867 38.3047 16.4524 38.9124C16.1182 39.52 15.9638 40.2103 16.0072 40.9025C16.0331 41.5534 16.2504 42.1822 16.6319 42.7102C17.0135 43.2383 17.5422 43.642 18.1521 43.871C18.5492 44.0487 18.9821 44.1319 19.4168 44.114C19.8515 44.0961 20.2761 43.9777 20.6573 43.7681C20.8179 43.6502 21.0079 43.5789 21.2064 43.5622C22.358 43.6363 23.504 43.7796 24.6383 43.9912C26.7662 44.4392 28.957 44.5031 31.1074 44.1799C32.7542 46.5429 34.1897 49.0464 35.3972 51.6614C36.0371 52.9854 36.3378 54.4478 36.2723 55.9169C36.2723 56.7749 36.2723 63.364 36.3581 64.1019C36.3626 64.4402 36.5002 64.7632 36.7411 65.0008C36.9819 65.2385 37.3067 65.3717 37.6451 65.3717H42.6041C42.9339 65.3721 43.2512 65.246 43.4907 65.0193C43.7302 64.7926 43.8735 64.4826 43.8911 64.1534C43.8911 64.1534 43.8911 57.7186 43.8911 56.9636C43.7132 53.9483 44.3036 50.9372 45.607 48.2123C46.1322 46.9367 46.7756 45.7131 47.5289 44.5574C48.0812 43.7992 48.7078 43.0979 49.3992 42.464C50.6342 41.416 51.6241 40.1098 52.2992 38.6374C53.2437 38.6002 54.1853 38.7639 55.0618 39.1179C57.018 39.7356 59.4546 40.4906 61.9255 37.4878C62.8693 36.3381 65.0829 32.2027 63.3669 29.8175C62.9673 29.2571 62.4083 28.8297 61.7626 28.591C61.117 28.3524 60.4144 28.3134 59.7463 28.4791ZM59.9351 35.8576C58.5623 37.5736 57.6357 37.2304 55.8168 36.6641C54.2683 36.0195 52.5527 35.8931 50.9264 36.3038C50.7219 36.3668 50.5364 36.4798 50.3866 36.6326C50.2368 36.7855 50.1274 36.9732 50.0684 37.1789C49.5683 38.5287 48.7077 39.7157 47.5803 40.6108C46.7659 41.3574 46.03 42.1854 45.3839 43.0817C44.5461 44.36 43.8336 45.7162 43.2562 47.1313C41.7644 50.2153 41.0851 53.6293 41.2829 57.0494C41.2829 57.5642 41.2829 60.9446 41.2829 62.8493H38.9149C38.9149 60.0523 38.8291 56.5861 38.9149 56.0713C38.9963 54.1756 38.6072 52.2892 37.7824 50.5803C36.3765 47.5455 34.6508 44.6693 32.6346 42.0007C32.4819 41.8103 32.2782 41.6673 32.0473 41.5883C31.8164 41.5093 31.5678 41.4976 31.3304 41.5545C29.2628 42.019 27.1178 42.019 25.0501 41.5545C23.8239 41.3405 22.5864 41.1973 21.3437 41.1255C20.7487 41.1003 20.1573 41.2304 19.6278 41.503L19.4562 41.5888C19.3385 41.5754 19.2232 41.5465 19.113 41.503C18.9617 41.4568 18.8273 41.3671 18.7267 41.245C18.626 41.123 18.5634 40.974 18.5467 40.8167C18.5322 40.6044 18.5795 40.3925 18.6831 40.2067C18.7867 40.0209 18.942 39.8692 19.1302 39.77C20.8289 39.1041 22.7165 39.1041 24.4152 39.77C26.033 40.2225 27.7253 40.3451 29.3914 40.1303C29.5799 40.1013 29.7595 40.0309 29.9174 39.924C30.0753 39.8171 30.2074 39.6765 30.3043 39.5123C30.4012 39.3481 30.4604 39.1644 30.4776 38.9745C30.4948 38.7846 30.4696 38.5933 30.4038 38.4144C30.093 37.7141 30.009 36.9341 30.1636 36.1837C30.2707 35.4899 30.2707 34.7839 30.1636 34.0902C30.1719 33.9302 30.1719 33.7698 30.1636 33.6098C30.0211 32.596 29.6343 31.6321 29.0364 30.8011C28.4385 29.97 27.6476 29.2968 26.7317 28.8395C26.2173 28.622 25.6828 28.4554 25.1359 28.3418C23.5316 27.9834 23.54 27.8457 23.5739 27.2871C23.5741 27.284 23.5742 27.281 23.5744 27.278C23.6087 26.7117 23.8318 26.523 23.9519 26.4886C25.1702 25.991 28.3447 27.4667 29.3228 28.359C29.4738 28.5018 29.6579 28.6048 29.8586 28.6587C30.0593 28.7127 30.2703 28.7158 30.4725 28.6679C30.6749 28.6224 30.8639 28.5306 31.0247 28.3995C31.1856 28.2685 31.3137 28.1019 31.3991 27.9129C31.8359 27.1241 32.4047 26.4161 33.0807 25.8194C34.0755 24.9451 34.8264 23.8277 35.2599 22.5763C35.3466 21.2323 34.903 19.9078 34.0245 18.887C33.9284 18.7861 33.863 18.6599 33.8356 18.5233C33.8083 18.3866 33.8202 18.245 33.87 18.1149C33.9526 17.9273 34.0805 17.7633 34.2423 17.6375C34.404 17.5116 34.5945 17.428 34.7966 17.3942C34.9341 17.3816 35.0723 17.407 35.1963 17.4675C35.3204 17.528 35.4255 17.6213 35.5002 17.7374C36.1448 18.5219 36.6287 19.4257 36.9244 20.3971C37.6279 22.8509 36.4611 24.6183 34.9682 26.8318C33.2523 29.3028 31.8109 31.7394 32.2571 34.6908C32.6392 37.5302 33.777 40.2148 35.5516 42.464C36.8632 43.9079 38.0139 45.4902 38.9835 47.1828C39.0939 47.4002 39.2639 47.5817 39.4735 47.7063C39.6831 47.8308 39.9238 47.8933 40.1675 47.8863C40.4137 47.8751 40.6518 47.7952 40.855 47.6557C41.0581 47.5162 41.2182 47.3227 41.3172 47.097C42.1916 44.9046 43.345 42.8341 44.749 40.9368C44.9314 40.7213 45.2578 40.4098 45.62 40.0641C45.6328 40.0519 45.6456 40.0396 45.6585 40.0273C46.9459 39.0525 47.9378 37.7398 48.5241 36.2351C48.7663 34.772 48.4999 33.2701 47.7691 31.9796C47.5495 31.5065 47.4357 30.9912 47.4357 30.4696C47.4357 29.948 47.5495 29.4327 47.7691 28.9596C48.8341 26.2867 50.801 24.0709 53.3287 22.6964C55.6109 21.7355 56.486 21.8385 56.7606 22.0787C56.952 22.2264 57.0806 22.4409 57.1209 22.6793C57.15 22.8928 57.1078 23.1099 57.0008 23.297C56.0117 23.8925 54.9507 24.3596 53.8435 24.6869C53.5342 24.7752 53.2351 24.896 52.9512 25.0472C51.9811 25.7506 51.1728 26.6536 50.5808 27.6955C49.9889 28.7373 49.6269 29.8939 49.5193 31.0873C49.5041 31.297 49.5334 31.5075 49.6051 31.7051C49.8355 32.2592 50.0136 32.8337 50.1371 33.421C50.2073 33.7441 50.4008 34.027 50.6764 34.2096C50.9519 34.3923 51.2879 34.4602 51.6128 34.3991C53.4342 34.083 55.3088 34.4106 56.915 35.3257C57.1543 35.4149 57.415 35.4299 57.6629 35.3686C57.9109 35.3074 58.1346 35.1729 58.3049 34.9825C58.9919 34.0319 59.4446 32.9324 59.6262 31.7737C59.6585 31.5954 59.7423 31.4305 59.8674 31.2993C59.9924 31.1682 60.1531 31.0766 60.3297 31.0359C60.5058 30.9904 60.6915 30.9988 60.8628 31.06C61.0341 31.1212 61.1832 31.2323 61.2906 31.379C61.8397 32.0997 60.8273 34.7766 59.9351 35.8576Z" fill="black"/>
<path d="M59.9351 35.8576C58.5623 37.5736 57.6357 37.2304 55.8168 36.6641C54.2683 36.0195 52.5527 35.8931 50.9264 36.3038C50.7219 36.3668 50.5364 36.4798 50.3866 36.6326C50.2368 36.7855 50.1274 36.9732 50.0684 37.1789C49.5683 38.5287 48.7077 39.7157 47.5803 40.6108C46.7659 41.3574 46.03 42.1854 45.3839 43.0817C44.5461 44.36 43.8336 45.7162 43.2562 47.1313C41.7644 50.2153 41.0851 53.6293 41.2829 57.0494V62.8493H38.9149C38.9149 60.0523 38.8291 56.5861 38.9149 56.0713C38.9963 54.1756 38.6072 52.2892 37.7824 50.5803C36.3765 47.5455 34.6508 44.6693 32.6346 42.0007C32.4819 41.8103 32.2782 41.6673 32.0473 41.5883C31.8164 41.5093 31.5678 41.4976 31.3304 41.5545C29.2628 42.019 27.1178 42.019 25.0501 41.5545C23.8239 41.3405 22.5864 41.1973 21.3437 41.1255C20.7487 41.1003 20.1573 41.2304 19.6278 41.503L19.4562 41.5888C19.3385 41.5754 19.2232 41.5465 19.113 41.503C18.9617 41.4568 18.8273 41.3671 18.7267 41.245C18.626 41.123 18.5634 40.974 18.5467 40.8167C18.5322 40.6044 18.5795 40.3925 18.6831 40.2067C18.7867 40.0209 18.942 39.8692 19.1302 39.77C20.8289 39.1041 22.7165 39.1041 24.4152 39.77C26.033 40.2225 27.7253 40.3451 29.3914 40.1303C29.5799 40.1013 29.7595 40.0309 29.9174 39.924C30.0753 39.8171 30.2074 39.6765 30.3043 39.5123C30.4012 39.3481 30.4604 39.1644 30.4776 38.9745C30.4948 38.7846 30.4696 38.5933 30.4038 38.4144C30.093 37.7141 30.009 36.9341 30.1636 36.1837C30.2707 35.4899 30.2707 34.7839 30.1636 34.0902C30.1719 33.9302 30.1719 33.7698 30.1636 33.6098C30.0211 32.596 29.6343 31.6321 29.0364 30.8011C28.4385 29.97 27.6476 29.2968 26.7317 28.8395C26.2173 28.622 25.6828 28.4554 25.1359 28.3418C23.5316 27.9834 23.54 27.8457 23.5739 27.2871L23.5744 27.278C23.6087 26.7117 23.8318 26.523 23.9519 26.4886C25.1702 25.991 28.3447 27.4667 29.3228 28.359C29.4738 28.5018 29.6579 28.6048 29.8586 28.6587C30.0593 28.7127 30.2703 28.7158 30.4725 28.6679C30.6749 28.6224 30.8639 28.5306 31.0247 28.3995C31.1856 28.2685 31.3137 28.1019 31.3991 27.9129C31.8359 27.1241 32.4047 26.4161 33.0807 25.8194C34.0755 24.9451 34.8264 23.8277 35.2599 22.5763C35.3466 21.2323 34.903 19.9078 34.0245 18.887C33.9284 18.7861 33.863 18.6599 33.8356 18.5233C33.8083 18.3866 33.8202 18.245 33.87 18.1149C33.9526 17.9273 34.0805 17.7633 34.2423 17.6375C34.404 17.5116 34.5945 17.428 34.7966 17.3942C34.9341 17.3816 35.0723 17.407 35.1963 17.4675C35.3204 17.528 35.4255 17.6213 35.5002 17.7374C36.1448 18.5219 36.6287 19.4257 36.9244 20.3971C37.6279 22.8509 36.4611 24.6183 34.9682 26.8318C33.2523 29.3028 31.8109 31.7394 32.2571 34.6908C32.6392 37.5302 33.777 40.2148 35.5516 42.464C36.8632 43.9079 38.0139 45.4902 38.9835 47.1828C39.0939 47.4002 39.2639 47.5817 39.4735 47.7063C39.6831 47.8308 39.9238 47.8933 40.1675 47.8863C40.4137 47.8751 40.6518 47.7952 40.855 47.6557C41.0581 47.5162 41.2182 47.3227 41.3172 47.097C42.1916 44.9046 43.345 42.8341 44.749 40.9368C44.9314 40.7213 45.2578 40.4098 45.62 40.0641L45.6585 40.0273C46.9459 39.0525 47.9378 37.7398 48.5241 36.2351C48.7663 34.772 48.4999 33.2701 47.7691 31.9796C47.5495 31.5065 47.4357 30.9912 47.4357 30.4696C47.4357 29.948 47.5495 29.4327 47.7691 28.9596C48.8341 26.2867 50.801 24.0709 53.3287 22.6964C55.6109 21.7355 56.486 21.8385 56.7606 22.0787C56.952 22.2264 57.0806 22.4409 57.1209 22.6793C57.15 22.8928 57.1078 23.1099 57.0008 23.297C56.0117 23.8925 54.9507 24.3596 53.8435 24.6869C53.5342 24.7752 53.2351 24.896 52.9512 25.0472C51.9811 25.7506 51.1728 26.6536 50.5808 27.6955C49.9889 28.7373 49.6269 29.8939 49.5193 31.0873C49.5041 31.297 49.5334 31.5075 49.6051 31.7051C49.8355 32.2592 50.0136 32.8337 50.1371 33.421C50.2073 33.7441 50.4008 34.027 50.6764 34.2096C50.9519 34.3923 51.2879 34.4602 51.6128 34.3991C53.4342 34.083 55.3088 34.4106 56.915 35.3257C57.1543 35.4149 57.415 35.4299 57.6629 35.3686C57.9109 35.3074 58.1346 35.1729 58.3049 34.9825C58.9919 34.0319 59.4446 32.9324 59.6262 31.7737C59.6585 31.5954 59.7423 31.4305 59.8674 31.2993C59.9924 31.1682 60.1531 31.0766 60.3297 31.0359C60.5058 30.9904 60.6915 30.9988 60.8628 31.06C61.0341 31.1212 61.1832 31.2323 61.2906 31.379C61.8397 32.0997 60.8273 34.7766 59.9351 35.8576Z" fill="black"/>
</svg>
